PathFileType	4	(X/Y/Z)	/home/abdul/Desktop/myosuite/custom_workspace/IK/output/S19_12_2.trc
DataRate	CameraRate	NumFrames	NumMarkers	Units	OrigDataRate	OrigDataStartFrame	OrigNumFrames
200.0	200.0	32	3	mm	200.0	369	1474
Frame#	Time	V_Shoulder			V_Elbow			V_Wrist		
		X1	Y1	Z1	X2	Y2	Z2	X3	Y3	Z3

369	1.84	-98.04469492798354	629.40300757126	312.77548534383976				-71.9794329952855	200.02714688966546	34.250481041575625
370	1.845	-98.0707864013441	629.4721322520696	312.76851960565705				-72.15601882651518	200.6188611499388	34.39455680339677
371	1.85	-98.09636198550812	629.5457168297074	312.76319667978856				-72.33257291435775	201.23406239828523	34.54527611571316
372	1.855	-98.1214368688109	629.6237878578673	312.7595290797903				-72.50887908982119	201.8728359567982	34.70268913513871
373	1.86	-98.14602669415562	629.706370599816	312.75752805986923				-72.68472709703984	202.53524267550574	34.8668435591488
374	1.865	-98.17014752143008	629.793489009512	312.7572036220626				-72.85991320606925	203.22131852918466	35.03778487488119
375	1.87	-98.19381579013515	629.8851657138433	312.7585645249539				-73.03424081643139	203.93107427629212	35.21555662215758
376	1.875	-98.21704828229014	629.9814219959889	312.7616182938832				-73.20752104978615	204.6644951815348	35.400200669733415
377	1.88	-98.23986208567806	630.0822777799176	312.76637123261156				-73.37957333009199	205.42154080335092	35.59175750369996
378	1.885	-98.26227455749198	630.1877516160342	312.77282843639404				-73.55022594961025	206.2021448473309	35.79026652688234
379	1.89	-98.28430328844121	630.2978606679808	312.7809938064153				-73.71931661910428	207.00621508634887	35.995766368001476
380	1.895	-98.3059660673744	630.4126207006013	312.7908700655421				-73.88669300058712	207.83363334792233	36.20829519929643
381	1.9	-98.32728084647401	630.5320460690791	312.8024587753411				-74.05221322097923	208.68425556906135	36.42789106123726
382	1.905	-98.3482657070743	630.656149709253	312.8157603543138				-74.21574636505156	209.55791191861266	36.654592192897695
383	1.91	-98.36893882615277	630.784943129117	312.83077409729543				-74.37717294604833	210.45440698685218	36.888437366501584
384	1.915	-98.38931844354202	630.9184364015106	312.8474981959661				-74.53638535241069	211.37352004182833	37.12946622460823
385	1.92	-98.40942282990692	631.0566381580019	312.8659297604192				-74.6932882690532	212.31500535171466	37.37771961835922
386	1.925	-98.42927025552872	631.1995555839666	312.88606484173283				-74.8477990716843	213.27859257219052	37.63323994517354
387	1.93	-98.44887895993601	631.3471944148646	312.9078984554888				-74.99984819270583	214.26398719763688	37.896071484249205
388	1.935	-98.46826712241817	631.4995589337136	312.9314246061813				-75.14937945727813	215.27087107471033	38.16626072820819
389	1.94	-98.48745283345606	631.6566519697599	312.9566363124599				-75.2963503881945	216.29890297664468	38.44385670920769
390	1.945	-98.50645406710048	631.8184748983439	312.9835256331487				-75.44073247827248	217.3477192364246	38.728911317834516
391	1.95	-98.52528865432646	631.9850276419552	313.012083693983				-75.5825114290395	218.41693443678298	39.021479613101164
392	1.955	-98.5439742573894	632.156308672474	313.04230071500655				-75.72168735456648	219.5061421547925	39.32162012187156
393	1.96	-98.56252834520483	632.3323150145915	313.0741660385706				-75.85827494938617	220.61491575865188	39.62939512606226
394	1.965	-98.58096816977213	632.5130422504006	313.10766815787616				-75.99230361951996	221.74280925411213	39.944870935990494
395	1.97	-98.59931074365879	632.6984845251491	313.14279474600227				-76.1238175757324	222.88935817784503	40.26811814827376
396	1.975	-98.61757281855925	632.8886345541404	313.1795326853612				-76.25287588823136	224.0540805349258	40.599211886727794
397	1.98	-98.63577086494001	633.0834836307744	313.21786809752365				-76.37955250213709	225.2364777774879	40.93823202475887
398	1.985	-98.6539210527793	633.2830216357098	313.25778637335685				-76.50393621315334	226.43603582150564	41.28526338780358
399	1.99	-98.67203923340674	633.4872370471331	313.29927220341807				-76.62613060298835	227.65222609857312	41.64039593443447
400	1.995	-98.69014092244709	633.6961169521173	313.34230960854876				-76.74625393419274	228.8845066394739	42.00372491482173
